{
    "asset" : {
        "generator" : "Khronos glTF Blender I/O v1.4.40",
        "version" : "2.0"
    },
    "scene" : 0,
    "scenes" : [
        {
            "name" : "Scene",
            "nodes" : [
                0
            ]
        }
    ],
    "nodes" : [
        {
            "mesh" : 0,
            "name" : "Sphere",
            "scale" : [
                2.726256847381592,
                0.43912914395332336,
                2.726256847381592
            ]
        }
    ],
    "materials" : [
        {
            "doubleSided" : true,
            "name" : "Material.002",
            "pbrMetallicRoughness" : {
                "baseColorFactor" : [
                    0.800000011920929,
                    0.800000011920929,
                    0.800000011920929,
                    1
                ],
                "metallicFactor" : 0,
                "roughnessFactor" : 0.5
            }
        },
        {
            "doubleSided" : true,
            "name" : "Material.003",
            "pbrMetallicRoughness" : {
                "baseColorFactor" : [
                    0.007001851685345173,
                    0.01520541775971651,
                    0.8000000715255737,
                    1
                ],
                "metallicFactor" : 0,
                "roughnessFactor" : 0.5
            }
        }
    ],
    "meshes" : [
        {
            "name" : "Sphere",
            "primitives" : [
                {
                    "attributes" : {
                        "POSITION" : 0,
                        "NORMAL" : 1,
                        "TEXCOORD_0" : 2
                    },
                    "indices" : 3,
                    "material" : 0
                },
                {
                    "attributes" : {
                        "POSITION" : 4,
                        "NORMAL" : 5,
                        "TEXCOORD_0" : 6
                    },
                    "indices" : 7,
                    "material" : 1
                }
            ]
        }
    ],
    "accessors" : [
        {
            "bufferView" : 0,
            "componentType" : 5126,
            "count" : 6730,
            "max" : [
                0.9872313737869263,
                0.7362037301063538,
                0.9872314929962158
            ],
            "min" : [
                -0.9872310161590576,
                -0.9975767135620117,
                -0.9872310161590576
            ],
            "type" : "VEC3"
        },
        {
            "bufferView" : 1,
            "componentType" : 5126,
            "count" : 6730,
            "type" : "VEC3"
        },
        {
            "bufferView" : 2,
            "componentType" : 5126,
            "count" : 6730,
            "type" : "VEC2"
        },
        {
            "bufferView" : 3,
            "componentType" : 5123,
            "count" : 37632,
            "type" : "SCALAR"
        },
        {
            "bufferView" : 4,
            "componentType" : 5126,
            "count" : 2777,
            "max" : [
                1.1370902061462402,
                0.587188720703125,
                1.1370902061462402
            ],
            "min" : [
                -1.1370902061462402,
                -0.2732681334018707,
                -1.1370902061462402
            ],
            "type" : "VEC3"
        },
        {
            "bufferView" : 5,
            "componentType" : 5126,
            "count" : 2777,
            "type" : "VEC3"
        },
        {
            "bufferView" : 6,
            "componentType" : 5126,
            "count" : 2777,
            "type" : "VEC2"
        },
        {
            "bufferView" : 7,
            "componentType" : 5123,
            "count" : 13440,
            "type" : "SCALAR"
        }
    ],
    "bufferViews" : [
        {
            "buffer" : 0,
            "byteLength" : 80760,
            "byteOffset" : 0
        },
        {
            "buffer" : 0,
            "byteLength" : 80760,
            "byteOffset" : 80760
        },
        {
            "buffer" : 0,
            "byteLength" : 53840,
            "byteOffset" : 161520
        },
        {
            "buffer" : 0,
            "byteLength" : 75264,
            "byteOffset" : 215360
        },
        {
            "buffer" : 0,
            "byteLength" : 33324,
            "byteOffset" : 290624
        },
        {
            "buffer" : 0,
            "byteLength" : 33324,
            "byteOffset" : 323948
        },
        {
            "buffer" : 0,
            "byteLength" : 22216,
            "byteOffset" : 357272
        },
        {
            "buffer" : 0,
            "byteLength" : 26880,
            "byteOffset" : 379488
        }
    ],
    "buffers" : [
        {
            "byteLength" : 406368,
            "uri" : "data:application/octet-stream;base64,"
        }
    ]
}
